<svg version="1.1"  xmlns="http://www.w3.org/2000/svg" xmlns:xlink="http://www.w3.org/1999/xlink" x="0px" y="0px"
class="svg-icon svg-icon__comments"
	 viewBox="0 0 128 128" enable-background="new 0 0 128 128" xml:space="preserve">
<g>
	<g>
		<g>
			<rect x="109.766" y="73.295" fill="#282D33" width="4" height="30.337"/>
		</g>
		<g>
			<path fill="#282D33" d="M18.231,103.632h-4v-61.02c0-2.915,2.361-5.287,5.263-5.287H38.77v4H19.495
				c-0.696,0-1.263,0.577-1.263,1.287V103.632z"/>
		</g>
		<g>
			<rect x="24.625" y="92.208" fill="#282D33" width="78.75" height="4"/>
		</g>
		<g>
			<rect x="24.625" y="46.654" fill="#282D33" width="14.144" height="4"/>
		</g>
		<g>
			<path fill="#282D33" d="M118.564,114.453H9.434c-3.711,0-8.143-3.253-8.636-3.624L0,110.229v-8.902h128v8.903l-0.797,0.6
				C126.709,111.2,122.273,114.453,118.564,114.453z M4,108.19c1.574,1.038,3.923,2.263,5.434,2.263h109.131
				c1.51,0,3.859-1.225,5.436-2.263v-2.864H4V108.19z"/>
		</g>
	</g>
	<g>
		<g>
			<path fill="#282D33" d="M86.664,80.557l-7.492-14.094H51.063c-3.162,0-5.735-2.848-5.735-6.348V19.9
				c0-3.503,2.573-6.353,5.735-6.353h71.194c3.166,0,5.742,2.85,5.742,6.352v40.216c0,3.5-2.576,6.348-5.742,6.348H94.156
				L86.664,80.557z M51.063,17.547c-0.94,0-1.735,1.078-1.735,2.353v40.215c0,1.272,0.794,2.348,1.735,2.348h30.513l5.088,9.572
				l5.09-9.572h30.504c0.943,0,1.742-1.075,1.742-2.348V19.899c0-1.275-0.799-2.352-1.742-2.352H51.063z"/>
		</g>
		<g>
			<g>
				<path fill="#282D33" d="M69.568,46.005c-3.566,0-6.467-2.916-6.467-6.5c0-3.582,2.901-6.496,6.467-6.496
					c3.564,0,6.467,2.914,6.467,6.496C76.035,43.089,73.133,46.005,69.568,46.005z M69.568,37.009c-1.361,0-2.467,1.12-2.467,2.496
					c0,1.378,1.105,2.5,2.467,2.5c1.359,0,2.467-1.122,2.467-2.5C72.035,38.128,70.928,37.009,69.568,37.009z"/>
			</g>
			<g>
				<path fill="#282D33" d="M86.664,46.005c-3.568,0-6.471-2.916-6.471-6.5c0-3.582,2.902-6.496,6.471-6.496
					c3.564,0,6.465,2.914,6.465,6.496C93.129,43.089,90.229,46.005,86.664,46.005z M86.664,37.009c-1.363,0-2.471,1.12-2.471,2.496
					c0,1.378,1.107,2.5,2.471,2.5c1.359,0,2.465-1.122,2.465-2.5C89.129,38.128,88.023,37.009,86.664,37.009z"/>
			</g>
			<g>
				<path fill="#282D33" d="M103.756,46.005c-3.564,0-6.467-2.916-6.467-6.5c0-3.582,2.902-6.496,6.467-6.496
					c3.566,0,6.469,2.914,6.469,6.496C110.225,43.089,107.322,46.005,103.756,46.005z M103.756,37.009
					c-1.359,0-2.467,1.12-2.467,2.496c0,1.378,1.107,2.5,2.467,2.5c1.361,0,2.469-1.122,2.469-2.5
					C106.225,38.128,105.117,37.009,103.756,37.009z"/>
			</g>
		</g>
	</g>
</g>
</svg>
